<mxfile host="app.diagrams.net" modified="2023-04-14T15:28:58.536Z" agent="Mozilla/5.0 (Windows NT 10.0; Win64; x64) AppleWebKit/537.36 (KHTML, like Gecko) Chrome/111.0.0.0 Safari/537.36 OPR/97.0.0.0" version="21.1.5" etag="FtzpeD-6mwHFnlTYh3lj" type="github">
  <diagram name="Page-1" id="HkEpgJcvHUwQp4pYZB9G">
    <mxGraphModel>
      <root>
        <mxCell id="0" />
        <mxCell id="1" parent="0" />
      </root>
    </mxGraphModel>
  </diagram>
</mxfile>
